<svg width="324" height="67" viewBox="0 0 324 67" fill="none" xmlns="http://www.w3.org/2000/svg">
<g clip-path="url(#clip0_20_318)">
<path d="M114.171 56.0443C115.514 55.9189 116.434 56.6634 116.93 58.2777C116.562 59.3072 115.918 60.1975 114.999 60.9488H115.359C116.972 59.7381 117.913 59.5648 118.182 60.4267C115.028 62.1664 113.357 63.498 113.174 64.4237C112.99 65.3494 113.493 65.6231 114.681 65.248L120.049 63.1195C120.572 63.2734 120.693 63.5653 120.41 63.9962C117.185 65.7359 114.78 66.6046 113.195 66.6046C111.724 66.4382 111.483 65.4224 112.474 63.5573C107.877 65.5889 104.87 66.6046 103.456 66.6046C102.479 66.2569 102.119 65.3871 102.373 63.9962C105.627 58.7793 109.559 56.1287 114.171 56.0455V56.0443ZM106.617 61.0628C104.353 63.1708 103.413 64.4819 103.794 64.9972C104.175 65.5125 105.743 65.1819 108.494 64.0065C111.245 62.8311 113.166 61.3034 114.256 59.4257C115.275 58.1876 114.935 57.5344 113.237 57.4637C111.086 57.7555 108.879 58.956 106.617 61.064V61.0628Z" fill="white"/>
<path d="M128.154 40.4141L130.063 40.519L131.676 40.7071L133.309 40.9363C134.242 41.1027 135.432 41.3672 136.874 41.7298C139.943 42.7182 142.104 44.133 143.356 45.9765C144.608 47.8199 145.22 49.1458 145.191 49.9518C145.191 55.3637 139.674 60.1086 128.64 64.1843C125.259 65.6595 122.755 66.396 121.128 66.396C120.11 66.2991 119.813 65.6515 120.237 64.4556C124.552 58.6539 128.781 55.7536 132.925 55.7536C134.396 55.7536 135.133 56.8799 135.133 59.1338H136.003C140.968 56.5881 143.451 53.8474 143.451 50.9117C143.875 50.23 143.256 48.724 141.594 46.3937C139.932 44.0634 136.233 42.6931 130.496 42.2827C124.759 41.8723 119.38 41.8962 114.359 42.3556C107.513 43.7887 104.089 45.354 104.089 47.0515C103.183 47.8587 102.738 47.6911 102.752 46.551C104.661 42.684 110.645 40.6524 120.703 40.4575L124.947 40.3115L128.151 40.4164L128.154 40.4141ZM124.303 61.5644C121.241 64.4795 122.062 65.1476 126.764 63.5675C131.467 61.9885 133.819 60.3503 133.819 58.6527V58.1728C133.338 57.1433 132.461 56.8161 131.188 57.1923C129.66 57.1923 127.365 58.6493 124.302 61.5644H124.303Z" fill="white"/>
<path d="M166.178 40.4769C167.663 39.7393 168.497 40.1565 168.682 41.7286V42.9599C166.956 46.7449 160.76 50.8901 150.094 55.3979V55.8152C152.697 55.8152 153.998 56.7819 153.998 58.7155C153.418 60.4689 148.779 63.0978 140.079 66.6035C138.339 66.8258 137.342 66.8326 137.087 66.624C136.832 66.4154 136.754 65.9913 136.854 65.3506C138.708 62.5962 139.966 61.1346 140.631 60.9682L140.779 60.3834L137.936 62.8664L137.554 62.4491V62.0319C137.737 60.5715 141.684 57.8091 149.394 53.7471C157.132 46.9581 162.727 42.5335 166.178 40.4746V40.4769ZM140.079 64.9561C145.595 63.0089 149.649 61.0674 152.238 59.1339C152.917 57.8262 152.202 57.1376 150.094 57.0681C147.095 57.0681 143.396 59.5591 138.996 64.5388C138.36 65.2069 138.72 65.346 140.079 64.9561ZM153.298 52.0803H153.68C162.719 47.7402 167.238 44.5605 167.238 42.5438C167.606 41.5006 167.009 41.455 165.445 42.4081C163.881 43.3612 159.832 46.5853 153.297 52.0803H153.298Z" fill="white"/>
<path d="M162.592 56.0646C165.733 55.5778 167.381 56.1479 167.536 57.7759C167.961 59.1816 165.662 61.0661 160.64 63.4317C155.619 65.7973 152.605 66.9727 151.601 66.959C150.596 66.9453 149.949 66.7675 149.659 66.4266C149.37 66.0857 149.302 65.4633 149.458 64.5592C149.613 63.6551 151.056 62.1354 153.786 59.999C156.516 57.8637 159.451 56.5526 162.592 56.0646ZM151.982 63.3792C150.751 64.8476 151.101 65.4211 153.033 65.1007C154.964 64.7804 158.899 62.8753 164.841 59.3822L165.286 58.9855C165.866 58.0951 165.407 57.5524 163.907 57.3575C162.407 57.1625 160.353 57.7508 157.742 59.1211C155.132 60.4915 153.212 61.9108 151.981 63.3781L151.982 63.3792Z" fill="white"/>
<path d="M175.111 57.1089L171.759 60.4481H172.183C175.494 58.8623 178.153 58.0688 180.162 58.0688C180.685 58.1942 180.819 58.5066 180.565 59.0082C173.861 61.0398 170.507 62.7783 170.507 64.2251C170.606 64.6287 170.924 64.8373 171.462 64.851C174.815 64.7541 178.55 64.0723 182.666 62.8057C183.416 62.7498 183.557 63.0702 183.09 63.7656C180.798 65.2409 176.746 66.186 170.931 66.6032C169.531 66.4083 168.831 65.4632 168.831 63.7656L165.479 65.185C165.153 65.0049 165.011 64.6845 165.054 64.2251L174.285 56.1695C175.077 56.0167 175.353 56.3291 175.113 57.1089H175.111Z" fill="white"/>
<path d="M194.23 56.0443C195.573 55.9189 196.493 56.6634 196.989 58.2777C196.621 59.3072 195.977 60.1975 195.057 60.9488H195.418C197.03 59.7381 197.972 59.5648 198.241 60.4267C195.086 62.1664 193.416 63.498 193.233 64.4237C193.049 65.3494 193.552 65.6231 194.74 65.248L200.108 63.1195C200.631 63.2734 200.751 63.5653 200.469 63.9962C197.244 65.7359 194.838 66.6046 193.254 66.6046C191.783 66.4382 191.542 65.4224 192.533 63.5573C187.935 65.5889 184.929 66.6046 183.514 66.6046C182.538 66.2569 182.178 65.3871 182.432 63.9962C185.686 58.7793 189.617 56.1287 194.23 56.0455V56.0443ZM186.675 61.0628C184.412 63.1708 183.471 64.4819 183.853 64.9972C184.234 65.5125 185.801 65.1819 188.553 64.0065C191.304 62.8311 193.225 61.3034 194.314 59.4257C195.333 58.1876 194.994 57.5344 193.296 57.4637C191.145 57.7555 188.938 58.956 186.675 61.064V61.0628Z" fill="white"/>
<path d="M200.914 56.1696L221.327 56.5664C221.878 56.9414 221.829 57.3313 221.178 57.7349C220.528 58.1385 218.13 58.2844 213.986 58.1727L210.442 58.0895C209.537 58.1453 207.181 57.9093 203.376 57.3804C204.465 58.5352 205.009 60.4061 205.009 62.994C208.107 60.5873 210.279 59.3834 211.524 59.3834C212.032 59.4256 212.174 59.6901 211.948 60.1769L202.972 66.6045C202.407 66.5908 202.131 66.3264 202.145 65.811L203.376 64.2047C203.376 60.4619 202.286 57.9162 200.108 56.5664C200.065 56.2186 200.334 56.0864 200.915 56.1696H200.914Z" fill="white"/>
<path d="M237.806 60.8062H324" stroke="white" stroke-miterlimit="10"/>
<path d="M0 60.8062H86.1943" stroke="white" stroke-miterlimit="10"/>
<path d="M146.726 6.96484H165.569V11.0827H151.261V30.9881H146.724V6.96484H146.726Z" fill="white"/>
<path d="M166.617 18.9777C166.617 12.4566 171.328 6.27979 180.052 6.27979C188.776 6.27979 193.487 12.4577 193.487 18.9777C193.487 25.4977 188.776 31.6756 180.052 31.6756C171.328 31.6756 166.617 25.4977 166.617 18.9777ZM188.951 18.9777C188.951 14.1724 185.287 10.3977 180.052 10.3977C174.817 10.3977 171.153 14.1724 171.153 18.9777C171.153 23.783 174.817 27.5578 180.052 27.5578C185.287 27.5578 188.951 23.783 188.951 18.9777Z" fill="white"/>
<path d="M196.628 6.96484H219.311V14.8586C219.311 18.8054 216.171 21.9634 210.936 22.4092L201.165 23.2676V30.9892H196.628V6.96484ZM210.761 18.2901C212.68 18.1191 214.774 17.2607 214.774 14.6864V11.0827H201.164V19.1475L210.761 18.289V18.2901Z" fill="white"/>
<path d="M221.753 18.9777C221.753 12.4566 226.464 6.27979 235.188 6.27979C243.912 6.27979 246.704 11.5993 247.576 15.203L243.039 15.7183C242.342 13.4872 240.422 10.3988 235.188 10.3988C229.955 10.3988 226.289 14.1735 226.289 18.9788C226.289 23.7842 229.778 27.5589 235.188 27.5589C239.55 27.5589 242.168 25.1568 243.214 23.9552L247.053 26.3573C246.006 27.5589 242.866 31.6768 235.188 31.6768C226.464 31.6768 221.753 25.4988 221.753 18.9788V18.9777Z" fill="white"/>
<path d="M250.02 6.99905H254.557V18.1191L266.596 6.96484H272.703L262.059 16.9175L272.354 30.9892H267.119L258.919 19.8349L254.557 23.9539V31.0234H250.02V6.99905Z" fill="white"/>
<path d="M275.145 6.96484H279.682V23.2676L293.99 6.96598H297.479V30.9903H292.942V14.6876L278.634 30.9892H275.145V6.96484Z" fill="white"/>
<path d="M301.666 6.96479H306.202V23.2676L320.51 6.96593H323.999V30.9903H319.462V14.6875L305.154 30.9891H301.665V6.96479H301.666ZM307.25 0.958984H319.463V4.39055H307.25V0.958984Z" fill="white"/>
<path d="M8.37507 7.65088H18.8436L27.2187 31.6752H22.5078L19.8904 24.1247L6.62935 26.3557L4.70975 31.6752H0L8.37507 7.65088ZM18.4947 20.3488L15.5284 11.7688H11.6903L8.02616 22.0646L18.4947 20.3488Z" fill="white"/>
<path d="M29.6624 7.65088H52.3452V15.5446C52.3452 19.4915 49.205 22.6494 43.9701 23.0952L34.1994 23.9536V31.6752H29.6624V7.65088ZM43.7951 18.9762C45.7147 18.804 47.8081 17.9467 47.8081 15.3725V11.7688H34.1982V19.8335L43.7951 18.975V18.9762Z" fill="white"/>
<path d="M63.1625 11.7699H54.4385V7.65088H76.4235V11.7688H67.6995V31.6741H63.1625V11.7699Z" fill="white"/>
<path d="M105.562 7.65088H110.448L118.299 23.9525L126.15 7.65088H131.036L134.002 31.6752H129.465L127.372 14.5151L121.09 27.5574H115.506L109.225 14.5151L107.131 31.6752H102.594L105.561 7.65088H105.562Z" fill="white"/>
<path d="M79.2773 7.65088H100.214V11.7688H83.8132V15.7156H96.2014V19.8335H83.8132V27.5551H100.214V31.673H79.2773V7.65088Z" fill="white"/>
<path d="M87.5667 0.958984H84.0393V4.39055H87.5667V0.958984Z" fill="white"/>
<path d="M95.4527 0.958984H91.9253V4.39055H95.4527V0.958984Z" fill="white"/>
</g>
<defs>
<clipPath id="clip0_20_318">
<rect width="324" height="66" fill="white" transform="translate(0 0.958984)"/>
</clipPath>
</defs>
</svg>
