<svg width="33" height="32" viewBox="0 0 33 32" fill="none" xmlns="http://www.w3.org/2000/svg">
<path d="M1.2981 7.5502V24.4471C1.2981 28.1252 4.28247 31.1096 7.9606 31.1096H24.8575C28.5356 31.1096 31.52 28.1252 31.52 24.4471V7.5502C31.52 3.87207 28.5356 0.887695 24.8575 0.887695H7.9606C4.28247 0.887695 1.2981 3.87207 1.2981 7.5502Z" fill="#3A76F0"/>
<path d="M13.8513 5.65293L14.0919 6.62168C13.1482 6.85293 12.2451 7.22793 11.4138 7.72793L10.9013 6.8748C11.8169 6.32168 12.8138 5.90918 13.8513 5.65293ZM18.9701 5.65293L18.7294 6.62168C19.6732 6.85293 20.5763 7.22793 21.4076 7.72793L21.9232 6.87168C21.0044 6.32168 20.0107 5.90918 18.9701 5.65293ZM7.28569 10.4904C6.73257 11.4061 6.32007 12.4029 6.06382 13.4404L7.03257 13.6811C7.26382 12.7373 7.63882 11.8342 8.13882 11.0029L7.28569 10.4904ZM6.75132 15.9998C6.75132 15.5154 6.78569 15.0311 6.86069 14.5529L5.87319 14.4029C5.71382 15.4623 5.71382 16.5373 5.87319 17.5967L6.86069 17.4467C6.78882 16.9686 6.75132 16.4842 6.75132 15.9998ZM21.9201 25.1248L21.4076 24.2686C20.5763 24.7717 19.6763 25.1436 18.7326 25.3748L18.9732 26.3436C20.0107 26.0873 21.0044 25.6779 21.9201 25.1248ZM26.0701 15.9998C26.0701 16.4842 26.0357 16.9686 25.9607 17.4467L26.9482 17.5967C27.1076 16.5373 27.1076 15.4623 26.9482 14.4029L25.9607 14.5529C26.0326 15.0311 26.0701 15.5154 26.0701 15.9998ZM26.7576 18.5561L25.7888 18.3154C25.5576 19.2592 25.1826 20.1623 24.6826 20.9936L25.5388 21.5092C26.0888 20.5936 26.5013 19.5967 26.7576 18.5561ZM17.8576 25.5498C16.8982 25.6936 15.9232 25.6936 14.9638 25.5498L14.8138 26.5373C15.8732 26.6967 16.9482 26.6967 18.0076 26.5373L17.8576 25.5498ZM24.1857 21.7279C23.6107 22.5092 22.9201 23.1967 22.1388 23.7717L22.7326 24.5748C23.5951 23.9404 24.3544 23.1842 24.9919 22.3248L24.1857 21.7279ZM22.1388 8.2248C22.9201 8.7998 23.6107 9.49043 24.1857 10.2717L24.9888 9.67168C24.3544 8.8123 23.5951 8.05293 22.7388 7.42168L22.1388 8.2248ZM8.63569 10.2717C9.21069 9.49043 9.90132 8.7998 10.6826 8.2248L10.0826 7.42168C9.22319 8.05605 8.46382 8.81543 7.83257 9.67168L8.63569 10.2717ZM25.5357 10.4904L24.6794 11.0029C25.1826 11.8342 25.5544 12.7342 25.7857 13.6779L26.7544 13.4373C26.5013 12.3998 26.0888 11.4061 25.5357 10.4904ZM14.9638 6.4498C15.9232 6.30605 16.8982 6.30605 17.8576 6.4498L18.0076 5.4623C16.9482 5.30293 15.8732 5.30293 14.8138 5.4623L14.9638 6.4498ZM9.14819 24.8436L7.08569 25.3248L7.56694 23.2623L6.59507 23.0342L6.11382 25.0967C6.03569 25.4342 6.13569 25.7873 6.37944 26.0311C6.62319 26.2748 6.97632 26.3748 7.31382 26.2967L9.37632 25.8248L9.14819 24.8436ZM6.80132 22.1404L7.77319 22.3654L8.10757 20.9342C7.62319 20.1186 7.26069 19.2342 7.03257 18.3123L6.06382 18.5529C6.28257 19.4373 6.61069 20.2873 7.04507 21.0842L6.80132 22.1404ZM11.4638 24.3061L10.0357 24.6404L10.2607 25.6123L11.3138 25.3686C12.1138 25.8029 12.9638 26.1342 13.8482 26.3498L14.0888 25.3811C13.1701 25.1529 12.2888 24.7873 11.4732 24.2998L11.4638 24.3061ZM16.4107 7.34043C13.2607 7.34355 10.3576 9.05605 8.83569 11.8123C7.31382 14.5686 7.40757 17.9373 9.08569 20.6061L8.25444 24.1592L11.8076 23.3279C14.9232 25.2904 18.9388 25.0686 21.8201 22.7748C24.7013 20.4811 25.8138 16.6154 24.5982 13.1404C23.3732 9.6623 20.0919 7.3373 16.4107 7.34043Z" fill="white"/>
</svg>
